<svg version="1.1" id="Layer_1" xmlns="http://www.w3.org/2000/svg" xmlns:xlink="http://www.w3.org/1999/xlink" x="0px" y="0px"
	 width="20%" viewBox="0 0 800 800" enable-background="new 0 0 800 800" xml:space="preserve">
<path fill="#663399" opacity="1.000000" stroke="none" 
	d="
M801.000000,110.000000 
	C801.000000,303.693512 801.000000,497.387054 800.726318,691.807495 
	C799.453308,697.062561 798.591614,701.626343 797.431519,706.112976 
	C791.266846,729.954956 778.812622,749.913086 760.870728,766.784668 
	C745.023193,781.686707 726.786011,791.918030 705.867493,797.536255 
	C701.266785,798.771912 696.623596,799.849548 692.000000,801.000000 
	C498.306458,801.000000 304.612946,801.000000 110.192535,800.726318 
	C102.860207,798.891235 96.111908,797.771179 89.675362,795.687866 
	C67.952255,788.656860 49.458172,776.595520 34.040051,759.641418 
	C20.072477,744.282349 9.991370,726.909729 4.778355,706.774719 
	C3.504259,701.853638 2.258688,696.925110 1.000000,692.000000 
	C1.000000,461.736603 1.000000,231.473206 1.000000,1.000000 
	C231.026810,1.000000 461.053680,1.000000 691.807495,1.273615 
	C701.620422,4.007617 710.953369,5.802650 719.741516,9.065357 
	C738.685364,16.098560 754.608582,27.709734 768.275330,42.652584 
	C779.991577,55.462795 788.776184,69.944473 794.484375,86.223778 
	C797.196899,93.959618 798.860962,102.063072 801.000000,110.000000 
M586.017944,567.396667 
	C594.049683,582.190186 606.774353,591.993591 621.209961,599.697327 
	C633.832581,606.433655 646.952576,612.238770 659.566772,618.989807 
	C669.143250,624.114990 676.244873,631.793579 678.761475,642.755859 
	C681.154602,653.180176 680.562683,663.637756 677.876831,673.931091 
	C676.497070,679.219299 673.791016,683.782959 668.744507,686.514709 
	C655.940491,693.445740 639.189880,688.028320 634.012939,674.510925 
	C631.321289,667.482788 630.476440,659.747253 628.727234,652.021423 
	C611.181641,652.021423 592.824036,652.021423 573.558105,652.021423 
	C574.775757,661.274719 575.341309,670.114014 577.177185,678.681091 
	C582.922791,705.492859 596.853149,725.957642 623.983521,734.899536 
	C642.791626,741.098572 662.089600,741.138733 681.198975,736.394470 
	C707.596741,729.840576 725.051819,713.265564 732.914551,687.228455 
	C739.213867,666.368469 738.876465,645.124023 734.393005,623.947632 
	C730.513184,605.622559 721.142822,590.458862 705.919312,579.559570 
	C697.310547,573.396118 687.880676,568.288879 678.486389,563.340515 
	C670.254761,559.004639 661.420837,555.824036 653.101685,551.638794 
	C644.520935,547.321960 636.959473,541.321106 635.546570,531.220947 
	C634.456970,523.432068 634.311157,515.252197 635.408142,507.480835 
	C636.830566,497.405121 644.421509,491.624664 654.525330,490.912537 
	C668.508240,489.927002 675.686829,495.212769 678.634277,509.151611 
	C679.792786,514.630493 680.220276,520.263916 680.969604,525.745605 
	C698.794922,525.745605 716.345825,525.745605 735.216797,525.745605 
	C733.325806,514.494751 732.401123,503.638000 729.580139,493.298645 
	C723.264404,470.150299 709.682800,452.843018 686.362854,444.552704 
	C674.896545,440.476349 662.957642,439.405609 650.891296,440.141083 
	C619.437683,442.058289 595.323364,455.762512 583.622192,485.891846 
	C573.193848,512.743591 574.514709,540.045471 586.017944,567.396667 
M450.092010,655.532898 
	C450.643341,651.960449 448.636871,651.513550 445.683014,651.537842 
	C432.684113,651.644653 419.683868,651.583740 406.684113,651.583679 
	C402.727264,651.583618 398.770416,651.583679 393.754913,651.583679 
	C394.908020,660.802002 395.410034,669.447144 397.146973,677.836487 
	C402.445129,703.426758 415.131622,723.616638 440.498199,733.656372 
	C456.056885,739.814331 472.361328,740.470764 488.755463,738.740845 
	C523.033020,735.123962 547.373962,714.034485 554.633301,681.781494 
	C558.980469,662.467041 558.745178,643.069946 554.531372,623.762939 
	C550.816895,606.744080 542.582336,592.106812 528.588318,581.689453 
	C519.045593,574.585693 508.457275,568.791687 497.978088,563.068176 
	C488.215363,557.735901 477.800690,553.601013 468.010834,548.313416 
	C460.947144,544.498291 456.311981,538.051025 455.381927,530.031250 
	C454.566589,523.000610 454.321014,515.700745 455.267517,508.715454 
	C456.780548,497.549591 464.392029,491.387451 475.402039,490.874084 
	C488.302094,490.272552 494.715454,494.437653 497.976837,506.501801 
	C499.656952,512.716614 500.234985,519.229370 501.347137,525.821899 
	C518.745972,525.821899 536.302612,525.821899 555.084045,525.821899 
	C553.612671,515.819214 552.915771,506.162567 550.685730,496.873993 
	C544.777832,472.266083 531.377197,453.536499 506.685272,444.618774 
	C495.068512,440.423279 482.960968,439.585541 470.711395,440.117035 
	C435.636688,441.638824 409.544586,461.918945 400.496246,495.148560 
	C395.721497,512.683655 396.341675,530.454346 399.620178,548.184509 
	C402.692200,564.798035 410.880554,578.451721 424.435089,588.471680 
	C431.631287,593.791260 439.382324,598.466125 447.264526,602.725952 
	C457.948425,608.499939 469.179932,613.263550 479.842041,619.074280 
	C491.314667,625.326599 498.924957,634.905823 499.808441,648.322021 
	C500.296631,655.734497 499.843597,663.341553 498.728088,670.696106 
	C497.032898,681.872314 491.002869,687.573914 481.113678,688.895386 
	C468.670776,690.558105 458.865265,686.143860 454.681458,675.720398 
	C452.244843,669.649902 451.578064,662.869080 450.092010,655.532898 
M264.307190,633.499451 
	C264.307404,599.676208 264.130005,565.851379 264.444305,532.031067 
	C264.514709,524.453308 265.785828,516.775208 267.444946,509.353546 
	C269.308746,501.016296 274.926147,495.676086 283.549652,494.251831 
	C292.556274,492.764313 300.798920,494.039673 307.094696,501.635529 
	C313.011505,508.774109 314.154816,517.230591 314.262207,526.025269 
	C314.303894,529.439148 314.269012,532.853943 314.269012,536.279541 
	C334.372864,536.279541 353.609497,536.279541 373.682983,536.279541 
	C373.118073,526.272522 373.164795,516.585449 371.924774,507.066071 
	C367.882782,476.035645 351.827271,454.310089 321.403931,444.577118 
	C307.402008,440.097656 292.907227,439.511230 278.369080,441.099487 
	C255.340744,443.615356 235.040329,451.842529 220.459091,470.723083 
	C208.833023,485.777161 205.473740,503.534302 205.399750,522.038452 
	C205.264526,555.861084 205.303879,589.684692 205.385864,623.507690 
	C205.423004,638.830566 205.005966,654.204224 206.079971,669.464417 
	C208.165451,699.096252 221.541458,721.776428 250.170334,732.823364 
	C275.034393,742.417664 300.503235,742.285767 325.390900,732.697083 
	C362.175476,718.524902 376.419250,682.876038 372.552002,645.249451 
	C353.315063,645.249451 334.067627,645.249451 313.936890,645.249451 
	C313.936890,650.614563 314.348053,655.777039 313.846497,660.849304 
	C312.956390,669.851257 310.466064,678.403198 302.145752,683.510376 
	C288.879333,691.653625 271.025391,685.123779 267.438232,669.630676 
	C264.811737,658.286560 265.240295,646.235168 264.307190,633.499451 
z"/>
<path fill="#47704C" opacity="1.000000" stroke="none" 
	d="
M801.000000,109.531342 
	C798.860962,102.063072 797.196899,93.959618 794.484375,86.223778 
	C788.776184,69.944473 779.991577,55.462795 768.275330,42.652584 
	C754.608582,27.709734 738.685364,16.098560 719.741516,9.065357 
	C710.953369,5.802650 701.620422,4.007617 692.267212,1.273615 
	C728.260254,1.000000 764.520569,1.000000 801.000000,1.000000 
	C801.000000,37.020599 801.000000,73.041641 801.000000,109.531342 
z"/>
<path fill="#47704C" opacity="1.000000" stroke="none" 
	d="
M1.000000,692.468628 
	C2.258688,696.925110 3.504259,701.853638 4.778355,706.774719 
	C9.991370,726.909729 20.072477,744.282349 34.040051,759.641418 
	C49.458172,776.595520 67.952255,788.656860 89.675362,795.687866 
	C96.111908,797.771179 102.860207,798.891235 109.732826,800.726318 
	C73.739716,801.000000 37.479435,801.000000 1.000000,801.000000 
	C1.000000,764.979431 1.000000,728.958374 1.000000,692.468628 
z"/>
<path fill="#47704C" opacity="1.000000" stroke="none" 
	d="
M692.468628,801.000000 
	C696.623596,799.849548 701.266785,798.771912 705.867493,797.536255 
	C726.786011,791.918030 745.023193,781.686707 760.870728,766.784668 
	C778.812622,749.913086 791.266846,729.954956 797.431519,706.112976 
	C798.591614,701.626343 799.453308,697.062561 800.726318,692.267212 
	C801.000000,728.260254 801.000000,764.520569 801.000000,801.000000 
	C764.979431,801.000000 728.958374,801.000000 692.468628,801.000000 
z"/>
<path fill="#FEFEFE" opacity="1.000000" stroke="none" 
	d="
M585.858521,567.059021 
	C574.514709,540.045471 573.193848,512.743591 583.622192,485.891846 
	C595.323364,455.762512 619.437683,442.058289 650.891296,440.141083 
	C662.957642,439.405609 674.896545,440.476349 686.362854,444.552704 
	C709.682800,452.843018 723.264404,470.150299 729.580139,493.298645 
	C732.401123,503.638000 733.325806,514.494751 735.216797,525.745605 
	C716.345825,525.745605 698.794922,525.745605 680.969604,525.745605 
	C680.220276,520.263916 679.792786,514.630493 678.634277,509.151611 
	C675.686829,495.212769 668.508240,489.927002 654.525330,490.912537 
	C644.421509,491.624664 636.830566,497.405121 635.408142,507.480835 
	C634.311157,515.252197 634.456970,523.432068 635.546570,531.220947 
	C636.959473,541.321106 644.520935,547.321960 653.101685,551.638794 
	C661.420837,555.824036 670.254761,559.004639 678.486389,563.340515 
	C687.880676,568.288879 697.310547,573.396118 705.919312,579.559570 
	C721.142822,590.458862 730.513184,605.622559 734.393005,623.947632 
	C738.876465,645.124023 739.213867,666.368469 732.914551,687.228455 
	C725.051819,713.265564 707.596741,729.840576 681.198975,736.394470 
	C662.089600,741.138733 642.791626,741.098572 623.983521,734.899536 
	C596.853149,725.957642 582.922791,705.492859 577.177185,678.681091 
	C575.341309,670.114014 574.775757,661.274719 573.558105,652.021423 
	C592.824036,652.021423 611.181641,652.021423 628.727234,652.021423 
	C630.476440,659.747253 631.321289,667.482788 634.012939,674.510925 
	C639.189880,688.028320 655.940491,693.445740 668.744507,686.514709 
	C673.791016,683.782959 676.497070,679.219299 677.876831,673.931091 
	C680.562683,663.637756 681.154602,653.180176 678.761475,642.755859 
	C676.244873,631.793579 669.143250,624.114990 659.566772,618.989807 
	C646.952576,612.238770 633.832581,606.433655 621.209961,599.697327 
	C606.774353,591.993591 594.049683,582.190186 585.858521,567.059021 
z"/>
<path fill="#FEFEFE" opacity="1.000000" stroke="none" 
	d="
M450.103485,655.970337 
	C451.578064,662.869080 452.244843,669.649902 454.681458,675.720398 
	C458.865265,686.143860 468.670776,690.558105 481.113678,688.895386 
	C491.002869,687.573914 497.032898,681.872314 498.728088,670.696106 
	C499.843597,663.341553 500.296631,655.734497 499.808441,648.322021 
	C498.924957,634.905823 491.314667,625.326599 479.842041,619.074280 
	C469.179932,613.263550 457.948425,608.499939 447.264526,602.725952 
	C439.382324,598.466125 431.631287,593.791260 424.435089,588.471680 
	C410.880554,578.451721 402.692200,564.798035 399.620178,548.184509 
	C396.341675,530.454346 395.721497,512.683655 400.496246,495.148560 
	C409.544586,461.918945 435.636688,441.638824 470.711395,440.117035 
	C482.960968,439.585541 495.068512,440.423279 506.685272,444.618774 
	C531.377197,453.536499 544.777832,472.266083 550.685730,496.873993 
	C552.915771,506.162567 553.612671,515.819214 555.084045,525.821899 
	C536.302612,525.821899 518.745972,525.821899 501.347137,525.821899 
	C500.234985,519.229370 499.656952,512.716614 497.976837,506.501801 
	C494.715454,494.437653 488.302094,490.272552 475.402039,490.874084 
	C464.392029,491.387451 456.780548,497.549591 455.267517,508.715454 
	C454.321014,515.700745 454.566589,523.000610 455.381927,530.031250 
	C456.311981,538.051025 460.947144,544.498291 468.010834,548.313416 
	C477.800690,553.601013 488.215363,557.735901 497.978088,563.068176 
	C508.457275,568.791687 519.045593,574.585693 528.588318,581.689453 
	C542.582336,592.106812 550.816895,606.744080 554.531372,623.762939 
	C558.745178,643.069946 558.980469,662.467041 554.633301,681.781494 
	C547.373962,714.034485 523.033020,735.123962 488.755463,738.740845 
	C472.361328,740.470764 456.056885,739.814331 440.498199,733.656372 
	C415.131622,723.616638 402.445129,703.426758 397.146973,677.836487 
	C395.410034,669.447144 394.908020,660.802002 393.754913,651.583679 
	C398.770416,651.583679 402.727264,651.583618 406.684113,651.583679 
	C419.683868,651.583740 432.684113,651.644653 445.683014,651.537842 
	C448.636871,651.513550 450.643341,651.960449 450.103485,655.970337 
z"/>
<path fill="#FEFEFE" opacity="1.000000" stroke="none" 
	d="
M264.307190,633.999268 
	C265.240295,646.235168 264.811737,658.286560 267.438232,669.630676 
	C271.025391,685.123779 288.879333,691.653625 302.145752,683.510376 
	C310.466064,678.403198 312.956390,669.851257 313.846497,660.849304 
	C314.348053,655.777039 313.936890,650.614563 313.936890,645.249451 
	C334.067627,645.249451 353.315063,645.249451 372.552002,645.249451 
	C376.419250,682.876038 362.175476,718.524902 325.390900,732.697083 
	C300.503235,742.285767 275.034393,742.417664 250.170334,732.823364 
	C221.541458,721.776428 208.165451,699.096252 206.079971,669.464417 
	C205.005966,654.204224 205.423004,638.830566 205.385864,623.507690 
	C205.303879,589.684692 205.264526,555.861084 205.399750,522.038452 
	C205.473740,503.534302 208.833023,485.777161 220.459091,470.723083 
	C235.040329,451.842529 255.340744,443.615356 278.369080,441.099487 
	C292.907227,439.511230 307.402008,440.097656 321.403931,444.577118 
	C351.827271,454.310089 367.882782,476.035645 371.924774,507.066071 
	C373.164795,516.585449 373.118073,526.272522 373.682983,536.279541 
	C353.609497,536.279541 334.372864,536.279541 314.269012,536.279541 
	C314.269012,532.853943 314.303894,529.439148 314.262207,526.025269 
	C314.154816,517.230591 313.011505,508.774109 307.094696,501.635529 
	C300.798920,494.039673 292.556274,492.764313 283.549652,494.251831 
	C274.926147,495.676086 269.308746,501.016296 267.444946,509.353546 
	C265.785828,516.775208 264.514709,524.453308 264.444305,532.031067 
	C264.130005,565.851379 264.307404,599.676208 264.307190,633.999268 
z"/>
</svg>