<svg xmlns="http://www.w3.org/2000/svg" xmlns:v="https://svgstorm.com"
viewBox = "0 0 32 32"
width="32"
height="32">
<g fill="None" fill-opacity="0.0" stroke="#07090A" stroke-opacity="0.33" stroke-width="0.3"><path d="
M 0.00 2.00 
C 0.83 1.59 1.87 1.03 2.00 0.00
L 0.00 0.00
L 0.00 2.00 Z"/>
</g>
<g fill="None" fill-opacity="0.0" stroke="#161A1E" stroke-opacity="1.00" stroke-width="0.3"><path d="
M 0.00 2.00 
L 0.00 18.00
C 1.46 17.45 2.18 15.60 4.00 16.00
C 0.69 25.40 11.61 22.01 7.74 17.26 C 3.88 12.50 0.68 10.40 6.08 6.08 C 11.48 1.77 16.33 11.80 10.00 14.00
C 20.26 19.44 6.62 31.65 0.00 24.00
L 0.00 30.00
C 0.83 30.41 1.87 30.97 2.00 32.00
L 30.00 32.00
C 30.41 31.17 30.97 30.13 32.00 30.00
L 32.00 8.00
C 30.03 9.59 27.34 8.80 25.00 9.00
C 22.69 11.57 25.07 28.19 19.97 26.97 C 14.88 25.75 21.29 11.96 22.00 9.00
C 19.56 7.81 16.64 11.61 15.00 9.00
C 19.22 4.01 26.22 6.64 32.00 6.00
L 32.00 2.00
C 31.17 1.59 30.13 1.03 30.00 0.00
L 2.00 0.00
C 1.87 1.03 0.83 1.59 0.00 2.00 Z"/>
</g>
<g fill="None" fill-opacity="0.0" stroke="#07090A" stroke-opacity="0.33" stroke-width="0.3"><path d="
M 32.00 2.00 
L 32.00 0.00
L 30.00 0.00
C 30.13 1.03 31.17 1.59 32.00 2.00 Z"/>
</g>
<g fill="None" fill-opacity="0.0" stroke="#2D5BA5" stroke-opacity="1.00" stroke-width="0.3"><path d="
M 0.00 18.00 
L 0.00 24.00
C 6.62 31.65 20.26 19.44 10.00 14.00
C 16.33 11.80 11.48 1.77 6.08 6.08 C 0.68 10.40 3.88 12.50 7.74 17.26 C 11.61 22.01 0.69 25.40 4.00 16.00
C 2.18 15.60 1.46 17.45 0.00 18.00
M 10.00 8.00 
C 11.73 16.00 2.85 7.64 10.00 8.00 Z"/>
</g>
<g fill="None" fill-opacity="0.0" stroke="#2D59A1" stroke-opacity="1.00" stroke-width="0.3"><path d="
M 32.00 8.00 
L 32.00 6.00
C 26.22 6.64 19.22 4.01 15.00 9.00
C 16.64 11.61 19.56 7.81 22.00 9.00
C 21.29 11.96 14.88 25.75 19.97 26.97 C 25.07 28.19 22.69 11.57 25.00 9.00
C 27.34 8.80 30.03 9.59 32.00 8.00 Z"/>
</g>
<g fill="None" fill-opacity="0.0" stroke="#18202B" stroke-opacity="1.00" stroke-width="0.3"><path d="
M 10.00 8.00 
C 2.85 7.64 11.73 16.00 10.00 8.00 Z"/>
</g>
<g fill="None" fill-opacity="0.0" stroke="#07090A" stroke-opacity="0.33" stroke-width="0.3"><path d="
M 0.00 32.00 
L 2.00 32.00
C 1.87 30.97 0.83 30.41 0.00 30.00
L 0.00 32.00 Z"/>
</g>
<g fill="None" fill-opacity="0.0" stroke="#07090A" stroke-opacity="0.33" stroke-width="0.3"><path d="
M 30.00 32.00 
L 32.00 32.00
L 32.00 30.00
C 30.97 30.13 30.41 31.17 30.00 32.00 Z"/>
</g>
<g fill="#07090A" fill-opacity="0.33" stroke="None">
<path d="
M 0.00 2.00 
C 0.83 1.59 1.87 1.03 2.00 0.00
L 0.00 0.00
L 0.00 2.00 Z"/>
</g>
<g fill="#161A1E" fill-opacity="1.00" stroke="None">
<path d="
M 0.00 2.00 
L 0.00 18.00
C 1.46 17.45 2.18 15.60 4.00 16.00
C 0.69 25.40 11.61 22.01 7.74 17.26 C 3.88 12.50 0.68 10.40 6.08 6.08 C 11.48 1.77 16.33 11.80 10.00 14.00
C 20.26 19.44 6.62 31.65 0.00 24.00
L 0.00 30.00
C 0.83 30.41 1.87 30.97 2.00 32.00
L 30.00 32.00
C 30.41 31.17 30.97 30.13 32.00 30.00
L 32.00 8.00
C 30.03 9.59 27.34 8.80 25.00 9.00
C 22.69 11.57 25.07 28.19 19.97 26.97 C 14.88 25.75 21.29 11.96 22.00 9.00
C 19.56 7.81 16.64 11.61 15.00 9.00
C 19.22 4.01 26.22 6.64 32.00 6.00
L 32.00 2.00
C 31.17 1.59 30.13 1.03 30.00 0.00
L 2.00 0.00
C 1.87 1.03 0.83 1.59 0.00 2.00 Z"/>
</g>
<g fill="#07090A" fill-opacity="0.33" stroke="None">
<path d="
M 32.00 2.00 
L 32.00 0.00
L 30.00 0.00
C 30.13 1.03 31.17 1.59 32.00 2.00 Z"/>
</g>
<g fill="#2D5BA5" fill-opacity="1.00" stroke="None">
<path d="
M 0.00 18.00 
L 0.00 24.00
C 6.62 31.65 20.26 19.44 10.00 14.00
C 16.33 11.80 11.48 1.77 6.08 6.08 C 0.68 10.40 3.88 12.50 7.74 17.26 C 11.61 22.01 0.69 25.40 4.00 16.00
C 2.18 15.60 1.46 17.45 0.00 18.00
M 10.00 8.00 
C 11.73 16.00 2.85 7.64 10.00 8.00 Z"/>
</g>
<g fill="#2D59A1" fill-opacity="1.00" stroke="None">
<path d="
M 32.00 8.00 
L 32.00 6.00
C 26.22 6.64 19.22 4.01 15.00 9.00
C 16.64 11.61 19.56 7.81 22.00 9.00
C 21.29 11.96 14.88 25.75 19.97 26.97 C 25.07 28.19 22.69 11.57 25.00 9.00
C 27.34 8.80 30.03 9.59 32.00 8.00 Z"/>
</g>
<g fill="#18202B" fill-opacity="1.00" stroke="None">
<path d="
M 10.00 8.00 
C 2.85 7.64 11.73 16.00 10.00 8.00 Z"/>
</g>
<g fill="#07090A" fill-opacity="0.33" stroke="None">
<path d="
M 0.00 32.00 
L 2.00 32.00
C 1.87 30.97 0.83 30.41 0.00 30.00
L 0.00 32.00 Z"/>
</g>
<g fill="#07090A" fill-opacity="0.33" stroke="None">
<path d="
M 30.00 32.00 
L 32.00 32.00
L 32.00 30.00
C 30.97 30.13 30.41 31.17 30.00 32.00 Z"/>
</g>
</svg>